<svg width="47" height="32" viewBox="0 0 239 160" fill="none" xmlns="http://www.w3.org/2000/svg"><g clip-path="url(#clip0)" fill-rule="evenodd" clip-rule="evenodd"><path d="M.525 32.307A7.364 7.364 0 017.915 25L229.2 26.227a7.355 7.355 0 017.294 7.386l-.517 94.076a7.381 7.381 0 01-7.381 7.311L7.311 133.773A7.375 7.375 0 010 126.382l.525-94.075z" fill="#EFA516"/><path d="M.509 35.644l235.968 1.307-.481 87.405L.027 123.049.51 35.644z" fill="#fff"/><path d="M200.35 60.87a19.628 19.628 0 00-19.704 19.479 19.644 19.644 0 0019.487 19.703 19.644 19.644 0 0019.712-19.487A19.62 19.62 0 00200.35 60.87zm-161.53-.896a19.61 19.61 0 00-19.695 19.478 19.624 19.624 0 0019.478 19.704 19.646 19.646 0 0019.713-19.487A19.633 19.633 0 0038.82 59.974z" fill="#E00819"/><path d="M198.918 42.208c-18.14-.534-26.731 11.064-39.181 25.342l-11.77 13.465 18.374 22.242c4.371 6.829-4.079 13.536-9.253 7.28L140.1 90.039l-16.772 19.222c-5.329 6.128-13.607-.79-9.064-7.501l18.193-20.93-11.769-14.199 7.681-9.408 11.96 14.543 10.468-12.026c5.103-5.898 10.357-13.726 17.107-17.708L.467 41.105l-.415 76.5 39.138.216c18.14.102 26.445-10.697 38.568-25.266L89.2 78.816 70.319 57.011c-4.526-6.723 3.77-13.62 9.099-7.492l17.46 20.101L113.191 50c5.192-6.237 13.633.5 9.245 7.307l-17.721 21.346 12.096 13.924-7.708 9.042-12.048-13.73-10.176 12.255c-5.002 6.013-10.062 13.691-16.72 17.845l165.866.918.424-76.495-37.531-.204zM69.678 78.326c-.088 17.06-14.065 30.895-31.128 30.802-17.055-.092-30.887-14.083-30.794-31.146.093-17.055 14.075-30.882 31.13-30.79 17.067.098 30.89 14.075 30.793 31.134zm130.393 31.694c-17.046-.092-30.878-14.083-30.785-31.146.093-17.055 14.079-30.882 31.129-30.79 17.063.093 30.886 14.075 30.793 31.13-.092 17.067-14.07 30.903-31.137 30.806z" fill="#E00819"/></g><defs><clipPath id="clip0"><path fill="#fff" d="M0 0h239v160H0z"/></clipPath></defs></svg>